solid OpenSCAD_Model
  facet normal 1 -0 0
    outer loop
      vertex 6.9 -12.15 0
      vertex 6.9 12.15 -18
      vertex 6.9 12.15 0
    endloop
  endfacet
  facet normal 1 0 0
    outer loop
      vertex 6.9 12.15 -18
      vertex 6.9 -12.15 0
      vertex 6.9 -12.15 -18
    endloop
  endfacet
  facet normal 0 0 -1
    outer loop
      vertex 6.9 -12.15 -18
      vertex 6.1 -11.35 -18
      vertex 6.9 12.15 -18
    endloop
  endfacet
  facet normal 0 0 -1
    outer loop
      vertex 6.9 -12.15 -18
      vertex -6.1 -11.35 -18
      vertex 6.1 -11.35 -18
    endloop
  endfacet
  facet normal -0 0 -1
    outer loop
      vertex -6.1 -11.35 -18
      vertex -6.9 -12.15 -18
      vertex -6.1 11.35 -18
    endloop
  endfacet
  facet normal 0 0 -1
    outer loop
      vertex -6.9 -12.15 -18
      vertex -6.1 -11.35 -18
      vertex 6.9 -12.15 -18
    endloop
  endfacet
  facet normal 0 0 -1
    outer loop
      vertex 6.1 11.35 -18
      vertex 6.9 12.15 -18
      vertex 6.1 -11.35 -18
    endloop
  endfacet
  facet normal 0 0 -1
    outer loop
      vertex -6.1 11.35 -18
      vertex 6.9 12.15 -18
      vertex 6.1 11.35 -18
    endloop
  endfacet
  facet normal 0 0 -1
    outer loop
      vertex -6.1 11.35 -18
      vertex -6.9 12.15 -18
      vertex 6.9 12.15 -18
    endloop
  endfacet
  facet normal 0 0 -1
    outer loop
      vertex -6.9 12.15 -18
      vertex -6.1 11.35 -18
      vertex -6.9 -12.15 -18
    endloop
  endfacet
  facet normal 0 0 1
    outer loop
      vertex 6.9 12.15 0
      vertex 6.1 11.35 0
      vertex 6.9 -12.15 0
    endloop
  endfacet
  facet normal 0 0 1
    outer loop
      vertex 6.9 12.15 0
      vertex -6.1 11.35 0
      vertex 6.1 11.35 0
    endloop
  endfacet
  facet normal 0 0 1
    outer loop
      vertex -6.1 11.35 0
      vertex -6.9 12.15 0
      vertex -6.1 -11.35 0
    endloop
  endfacet
  facet normal -0 0 1
    outer loop
      vertex -6.9 12.15 0
      vertex -6.1 11.35 0
      vertex 6.9 12.15 0
    endloop
  endfacet
  facet normal -0 0 1
    outer loop
      vertex 6.1 -11.35 0
      vertex 6.9 -12.15 0
      vertex 6.1 11.35 0
    endloop
  endfacet
  facet normal -0 0 1
    outer loop
      vertex -6.1 -11.35 0
      vertex 6.9 -12.15 0
      vertex 6.1 -11.35 0
    endloop
  endfacet
  facet normal 0 0 1
    outer loop
      vertex -6.1 -11.35 0
      vertex -6.9 -12.15 0
      vertex 6.9 -12.15 0
    endloop
  endfacet
  facet normal 0 0 1
    outer loop
      vertex -6.9 -12.15 0
      vertex -6.1 -11.35 0
      vertex -6.9 12.15 0
    endloop
  endfacet
  facet normal -1 0 0
    outer loop
      vertex -6.9 -12.15 -18
      vertex -6.9 12.15 0
      vertex -6.9 12.15 -18
    endloop
  endfacet
  facet normal -1 -0 0
    outer loop
      vertex -6.9 12.15 0
      vertex -6.9 -12.15 -18
      vertex -6.9 -12.15 0
    endloop
  endfacet
  facet normal 0 1 0
    outer loop
      vertex 6.9 12.15 0
      vertex 6.8 12.15 -16.399
      vertex -6.9 12.15 0
    endloop
  endfacet
  facet normal 0 1 -0
    outer loop
      vertex 6.9 12.15 -18
      vertex 6.8 12.15 -16.399
      vertex 6.9 12.15 0
    endloop
  endfacet
  facet normal 0 1 0
    outer loop
      vertex 6.8 12.15 -17.999
      vertex 6.9 12.15 -18
      vertex -6.8 12.15 -17.999
    endloop
  endfacet
  facet normal 0 1 0
    outer loop
      vertex 6.8 12.15 -16.399
      vertex 6.9 12.15 -18
      vertex 6.8 12.15 -17.999
    endloop
  endfacet
  facet normal 0 1 -0
    outer loop
      vertex -6.8 12.15 -16.399
      vertex -6.9 12.15 0
      vertex 6.8 12.15 -16.399
    endloop
  endfacet
  facet normal 0 1 0
    outer loop
      vertex -6.9 12.15 -18
      vertex -6.8 12.15 -16.399
      vertex -6.8 12.15 -17.999
    endloop
  endfacet
  facet normal 0 1 0
    outer loop
      vertex -6.8 12.15 -16.399
      vertex -6.9 12.15 -18
      vertex -6.9 12.15 0
    endloop
  endfacet
  facet normal 0 1 0
    outer loop
      vertex -6.9 12.15 -18
      vertex -6.8 12.15 -17.999
      vertex 6.9 12.15 -18
    endloop
  endfacet
  facet normal 0 -1 0
    outer loop
      vertex -6.9 -12.15 0
      vertex -6.8 -12.15 -16.399
      vertex 6.9 -12.15 0
    endloop
  endfacet
  facet normal 0 -1 0
    outer loop
      vertex -6.9 -12.15 -18
      vertex -6.8 -12.15 -16.399
      vertex -6.9 -12.15 0
    endloop
  endfacet
  facet normal 0 -1 -0
    outer loop
      vertex -6.8 -12.15 -17.999
      vertex -6.9 -12.15 -18
      vertex 6.8 -12.15 -17.999
    endloop
  endfacet
  facet normal 0 -1 -0
    outer loop
      vertex -6.8 -12.15 -16.399
      vertex -6.9 -12.15 -18
      vertex -6.8 -12.15 -17.999
    endloop
  endfacet
  facet normal 0 -1 0
    outer loop
      vertex 6.8 -12.15 -16.399
      vertex 6.9 -12.15 0
      vertex -6.8 -12.15 -16.399
    endloop
  endfacet
  facet normal 0 -1 0
    outer loop
      vertex 6.9 -12.15 -18
      vertex 6.8 -12.15 -16.399
      vertex 6.8 -12.15 -17.999
    endloop
  endfacet
  facet normal 0 -1 0
    outer loop
      vertex 6.8 -12.15 -16.399
      vertex 6.9 -12.15 -18
      vertex 6.9 -12.15 0
    endloop
  endfacet
  facet normal 0 -1 0
    outer loop
      vertex 6.9 -12.15 -18
      vertex 6.8 -12.15 -17.999
      vertex -6.9 -12.15 -18
    endloop
  endfacet
  facet normal -0.772998 -0.634408 0
    outer loop
      vertex -4.80833 -21.0583 -17.999
      vertex -5.65399 -20.0279 -16.399
      vertex -5.65399 -20.0279 -17.999
    endloop
  endfacet
  facet normal -0.772998 -0.634408 0
    outer loop
      vertex -5.65399 -20.0279 -16.399
      vertex -4.80833 -21.0583 -17.999
      vertex -4.80833 -21.0583 -16.399
    endloop
  endfacet
  facet normal -0.634363 0.773035 0
    outer loop
      vertex -0.944468 24.4635 -17.999
      vertex -1.20208 24.2521 -16.399
      vertex -0.944468 24.4635 -16.399
    endloop
  endfacet
  facet normal -0.634363 0.773035 0
    outer loop
      vertex -1.20208 24.2521 -16.399
      vertex -0.944468 24.4635 -17.999
      vertex -1.20208 24.2521 -17.999
    endloop
  endfacet
  facet normal 0.956938 -0.290292 0
    outer loop
      vertex 6.28238 -18.8522 -16.399
      vertex 6.66934 -17.5766 -17.999
      vertex 6.66934 -17.5766 -16.399
    endloop
  endfacet
  facet normal 0.956938 -0.290292 0
    outer loop
      vertex 6.66934 -17.5766 -17.999
      vertex 6.28238 -18.8522 -16.399
      vertex 6.28238 -18.8522 -17.999
    endloop
  endfacet
  facet normal 0.881932 0.471376 0
    outer loop
      vertex 6.28238 18.8522 -16.399
      vertex 5.65399 20.0279 -17.999
      vertex 5.65399 20.0279 -16.399
    endloop
  endfacet
  facet normal 0.881932 0.471376 0
    outer loop
      vertex 5.65399 20.0279 -17.999
      vertex 6.28238 18.8522 -16.399
      vertex 6.28238 18.8522 -17.999
    endloop
  endfacet
  facet normal 0.471405 0.881917 -0
    outer loop
      vertex 0.944468 24.4635 -17.999
      vertex 0.650561 24.6206 -16.399
      vertex 0.944468 24.4635 -16.399
    endloop
  endfacet
  facet normal 0.471405 0.881917 0
    outer loop
      vertex 0.650561 24.6206 -16.399
      vertex 0.944468 24.4635 -17.999
      vertex 0.650561 24.6206 -17.999
    endloop
  endfacet
  facet normal -1 0 0
    outer loop
      vertex -6.8 12.15 -17.999
      vertex -6.8 16.25 -16.399
      vertex -6.8 16.25 -17.999
    endloop
  endfacet
  facet normal -1 -0 0
    outer loop
      vertex -6.8 16.25 -16.399
      vertex -6.8 12.15 -17.999
      vertex -6.8 12.15 -16.399
    endloop
  endfacet
  facet normal -1 0 0
    outer loop
      vertex -6.8 -16.25 -17.999
      vertex -6.8 -12.15 -16.399
      vertex -6.8 -12.15 -17.999
    endloop
  endfacet
  facet normal -1 -0 0
    outer loop
      vertex -6.8 -12.15 -16.399
      vertex -6.8 -16.25 -17.999
      vertex -6.8 -16.25 -16.399
    endloop
  endfacet
  facet normal 0.634363 0.773035 -0
    outer loop
      vertex 1.20208 24.2521 -17.999
      vertex 0.944468 24.4635 -16.399
      vertex 1.20208 24.2521 -16.399
    endloop
  endfacet
  facet normal 0.634363 0.773035 0
    outer loop
      vertex 0.944468 24.4635 -16.399
      vertex 1.20208 24.2521 -17.999
      vertex 0.944468 24.4635 -17.999
    endloop
  endfacet
  facet normal -0.995185 0.0980181 0
    outer loop
      vertex -6.8 16.25 -17.999
      vertex -6.66934 17.5766 -16.399
      vertex -6.66934 17.5766 -17.999
    endloop
  endfacet
  facet normal -0.995185 0.0980181 0
    outer loop
      vertex -6.66934 17.5766 -16.399
      vertex -6.8 16.25 -17.999
      vertex -6.8 16.25 -16.399
    endloop
  endfacet
  facet normal -0.995185 -0.0980181 0
    outer loop
      vertex -6.66934 -17.5766 -17.999
      vertex -6.8 -16.25 -16.399
      vertex -6.8 -16.25 -17.999
    endloop
  endfacet
  facet normal -0.995185 -0.0980181 0
    outer loop
      vertex -6.8 -16.25 -16.399
      vertex -6.66934 -17.5766 -17.999
      vertex -6.66934 -17.5766 -16.399
    endloop
  endfacet
  facet normal -0.956938 0.290292 0
    outer loop
      vertex -6.66934 17.5766 -17.999
      vertex -6.28238 18.8522 -16.399
      vertex -6.28238 18.8522 -17.999
    endloop
  endfacet
  facet normal -0.956938 0.290292 0
    outer loop
      vertex -6.28238 18.8522 -16.399
      vertex -6.66934 17.5766 -17.999
      vertex -6.66934 17.5766 -16.399
    endloop
  endfacet
  facet normal 0.772998 0.634408 0
    outer loop
      vertex 5.65399 20.0279 -16.399
      vertex 4.80833 21.0583 -17.999
      vertex 4.80833 21.0583 -16.399
    endloop
  endfacet
  facet normal 0.772998 0.634408 0
    outer loop
      vertex 4.80833 21.0583 -17.999
      vertex 5.65399 20.0279 -16.399
      vertex 5.65399 20.0279 -17.999
    endloop
  endfacet
  facet normal -0.471405 0.881917 0
    outer loop
      vertex -0.650561 24.6206 -17.999
      vertex -0.944468 24.4635 -16.399
      vertex -0.650561 24.6206 -16.399
    endloop
  endfacet
  facet normal -0.471405 0.881917 0
    outer loop
      vertex -0.944468 24.4635 -16.399
      vertex -0.650561 24.6206 -17.999
      vertex -0.944468 24.4635 -17.999
    endloop
  endfacet
  facet normal 0.956938 0.290292 0
    outer loop
      vertex 6.66934 17.5766 -16.399
      vertex 6.28238 18.8522 -17.999
      vertex 6.28238 18.8522 -16.399
    endloop
  endfacet
  facet normal 0.956938 0.290292 0
    outer loop
      vertex 6.28238 18.8522 -17.999
      vertex 6.66934 17.5766 -16.399
      vertex 6.66934 17.5766 -17.999
    endloop
  endfacet
  facet normal 0.663 0.74862 -0
    outer loop
      vertex 4.80833 21.0583 -17.999
      vertex 1.20208 24.2521 -16.399
      vertex 4.80833 21.0583 -16.399
    endloop
  endfacet
  facet normal 0.663 0.74862 0
    outer loop
      vertex 1.20208 24.2521 -16.399
      vertex 4.80833 21.0583 -17.999
      vertex 1.20208 24.2521 -17.999
    endloop
  endfacet
  facet normal -0.956938 -0.290292 0
    outer loop
      vertex -6.28238 -18.8522 -17.999
      vertex -6.66934 -17.5766 -16.399
      vertex -6.66934 -17.5766 -17.999
    endloop
  endfacet
  facet normal -0.956938 -0.290292 0
    outer loop
      vertex -6.66934 -17.5766 -16.399
      vertex -6.28238 -18.8522 -17.999
      vertex -6.28238 -18.8522 -16.399
    endloop
  endfacet
  facet normal -0.772998 0.634408 0
    outer loop
      vertex -5.65399 20.0279 -17.999
      vertex -4.80833 21.0583 -16.399
      vertex -4.80833 21.0583 -17.999
    endloop
  endfacet
  facet normal -0.772998 0.634408 0
    outer loop
      vertex -4.80833 21.0583 -16.399
      vertex -5.65399 20.0279 -17.999
      vertex -5.65399 20.0279 -16.399
    endloop
  endfacet
  facet normal -0.881932 0.471376 0
    outer loop
      vertex -6.28238 18.8522 -17.999
      vertex -5.65399 20.0279 -16.399
      vertex -5.65399 20.0279 -17.999
    endloop
  endfacet
  facet normal -0.881932 0.471376 0
    outer loop
      vertex -5.65399 20.0279 -16.399
      vertex -6.28238 18.8522 -17.999
      vertex -6.28238 18.8522 -16.399
    endloop
  endfacet
  facet normal 0.634363 -0.773035 0
    outer loop
      vertex 0.944468 -24.4635 -17.999
      vertex 1.20208 -24.2521 -16.399
      vertex 0.944468 -24.4635 -16.399
    endloop
  endfacet
  facet normal 0.634363 -0.773035 0
    outer loop
      vertex 1.20208 -24.2521 -16.399
      vertex 0.944468 -24.4635 -17.999
      vertex 1.20208 -24.2521 -17.999
    endloop
  endfacet
  facet normal 0.995185 0.0980181 0
    outer loop
      vertex 6.8 16.25 -16.399
      vertex 6.66934 17.5766 -17.999
      vertex 6.66934 17.5766 -16.399
    endloop
  endfacet
  facet normal 0.995185 0.0980181 0
    outer loop
      vertex 6.66934 17.5766 -17.999
      vertex 6.8 16.25 -16.399
      vertex 6.8 16.25 -17.999
    endloop
  endfacet
  facet normal -0.0981212 0.995174 0
    outer loop
      vertex 0 24.75 -17.999
      vertex -0.331653 24.7173 -16.399
      vertex 0 24.75 -16.399
    endloop
  endfacet
  facet normal -0.0981212 0.995174 0
    outer loop
      vertex -0.331653 24.7173 -16.399
      vertex 0 24.75 -17.999
      vertex -0.331653 24.7173 -17.999
    endloop
  endfacet
  facet normal 0.995185 -0.0980181 0
    outer loop
      vertex 6.66934 -17.5766 -16.399
      vertex 6.8 -16.25 -17.999
      vertex 6.8 -16.25 -16.399
    endloop
  endfacet
  facet normal 0.995185 -0.0980181 0
    outer loop
      vertex 6.8 -16.25 -17.999
      vertex 6.66934 -17.5766 -16.399
      vertex 6.66934 -17.5766 -17.999
    endloop
  endfacet
  facet normal -0.290176 0.956973 0
    outer loop
      vertex -0.331653 24.7173 -17.999
      vertex -0.650561 24.6206 -16.399
      vertex -0.331653 24.7173 -16.399
    endloop
  endfacet
  facet normal -0.290176 0.956973 0
    outer loop
      vertex -0.650561 24.6206 -16.399
      vertex -0.331653 24.7173 -17.999
      vertex -0.650561 24.6206 -17.999
    endloop
  endfacet
  facet normal 0.0981212 0.995174 -0
    outer loop
      vertex 0.331653 24.7173 -17.999
      vertex 0 24.75 -16.399
      vertex 0.331653 24.7173 -16.399
    endloop
  endfacet
  facet normal 0.0981212 0.995174 0
    outer loop
      vertex 0 24.75 -16.399
      vertex 0.331653 24.7173 -17.999
      vertex 0 24.75 -17.999
    endloop
  endfacet
  facet normal 0.290176 0.956973 -0
    outer loop
      vertex 0.650561 24.6206 -17.999
      vertex 0.331653 24.7173 -16.399
      vertex 0.650561 24.6206 -16.399
    endloop
  endfacet
  facet normal 0.290176 0.956973 0
    outer loop
      vertex 0.331653 24.7173 -16.399
      vertex 0.650561 24.6206 -17.999
      vertex 0.331653 24.7173 -17.999
    endloop
  endfacet
  facet normal -0.634363 -0.773035 0
    outer loop
      vertex -1.20208 -24.2521 -17.999
      vertex -0.944468 -24.4635 -16.399
      vertex -1.20208 -24.2521 -16.399
    endloop
  endfacet
  facet normal -0.634363 -0.773035 -0
    outer loop
      vertex -0.944468 -24.4635 -16.399
      vertex -1.20208 -24.2521 -17.999
      vertex -0.944468 -24.4635 -17.999
    endloop
  endfacet
  facet normal -0.881932 -0.471376 0
    outer loop
      vertex -5.65399 -20.0279 -17.999
      vertex -6.28238 -18.8522 -16.399
      vertex -6.28238 -18.8522 -17.999
    endloop
  endfacet
  facet normal -0.881932 -0.471376 0
    outer loop
      vertex -6.28238 -18.8522 -16.399
      vertex -5.65399 -20.0279 -17.999
      vertex -5.65399 -20.0279 -16.399
    endloop
  endfacet
  facet normal 1 -0 0
    outer loop
      vertex 6.8 12.15 -16.399
      vertex 6.8 16.25 -17.999
      vertex 6.8 16.25 -16.399
    endloop
  endfacet
  facet normal 1 0 0
    outer loop
      vertex 6.8 16.25 -17.999
      vertex 6.8 12.15 -16.399
      vertex 6.8 12.15 -17.999
    endloop
  endfacet
  facet normal 1 -0 0
    outer loop
      vertex 6.8 -16.25 -16.399
      vertex 6.8 -12.15 -17.999
      vertex 6.8 -12.15 -16.399
    endloop
  endfacet
  facet normal 1 0 0
    outer loop
      vertex 6.8 -12.15 -17.999
      vertex 6.8 -16.25 -16.399
      vertex 6.8 -16.25 -17.999
    endloop
  endfacet
  facet normal 0.772998 -0.634408 0
    outer loop
      vertex 4.80833 -21.0583 -16.399
      vertex 5.65399 -20.0279 -17.999
      vertex 5.65399 -20.0279 -16.399
    endloop
  endfacet
  facet normal 0.772998 -0.634408 0
    outer loop
      vertex 5.65399 -20.0279 -17.999
      vertex 4.80833 -21.0583 -16.399
      vertex 4.80833 -21.0583 -17.999
    endloop
  endfacet
  facet normal 0.290176 -0.956973 0
    outer loop
      vertex 0.331653 -24.7173 -17.999
      vertex 0.650561 -24.6206 -16.399
      vertex 0.331653 -24.7173 -16.399
    endloop
  endfacet
  facet normal 0.290176 -0.956973 0
    outer loop
      vertex 0.650561 -24.6206 -16.399
      vertex 0.331653 -24.7173 -17.999
      vertex 0.650561 -24.6206 -17.999
    endloop
  endfacet
  facet normal -0.663 0.74862 0
    outer loop
      vertex -1.20208 24.2521 -17.999
      vertex -4.80833 21.0583 -16.399
      vertex -1.20208 24.2521 -16.399
    endloop
  endfacet
  facet normal -0.663 0.74862 0
    outer loop
      vertex -4.80833 21.0583 -16.399
      vertex -1.20208 24.2521 -17.999
      vertex -4.80833 21.0583 -17.999
    endloop
  endfacet
  facet normal 0.0981212 -0.995174 0
    outer loop
      vertex 0 -24.75 -17.999
      vertex 0.331653 -24.7173 -16.399
      vertex 0 -24.75 -16.399
    endloop
  endfacet
  facet normal 0.0981212 -0.995174 0
    outer loop
      vertex 0.331653 -24.7173 -16.399
      vertex 0 -24.75 -17.999
      vertex 0.331653 -24.7173 -17.999
    endloop
  endfacet
  facet normal -0.663 -0.74862 0
    outer loop
      vertex -4.80833 -21.0583 -17.999
      vertex -1.20208 -24.2521 -16.399
      vertex -4.80833 -21.0583 -16.399
    endloop
  endfacet
  facet normal -0.663 -0.74862 -0
    outer loop
      vertex -1.20208 -24.2521 -16.399
      vertex -4.80833 -21.0583 -17.999
      vertex -1.20208 -24.2521 -17.999
    endloop
  endfacet
  facet normal 0.881932 -0.471376 0
    outer loop
      vertex 5.65399 -20.0279 -16.399
      vertex 6.28238 -18.8522 -17.999
      vertex 6.28238 -18.8522 -16.399
    endloop
  endfacet
  facet normal 0.881932 -0.471376 0
    outer loop
      vertex 6.28238 -18.8522 -17.999
      vertex 5.65399 -20.0279 -16.399
      vertex 5.65399 -20.0279 -17.999
    endloop
  endfacet
  facet normal 0 0 -1
    outer loop
      vertex 6.8 -16.25 -17.999
      vertex 0.980784 -14.2451 -17.999
      vertex 1 -14.05 -17.999
    endloop
  endfacet
  facet normal 0 0 -1
    outer loop
      vertex -1.20208 -24.2521 -17.999
      vertex 1.20208 -24.2521 -17.999
      vertex 0.944468 -24.4635 -17.999
    endloop
  endfacet
  facet normal 0 0 -1
    outer loop
      vertex 4.80833 -21.0583 -17.999
      vertex 0.923879 -14.4327 -17.999
      vertex 0.980784 -14.2451 -17.999
    endloop
  endfacet
  facet normal 0 0 -1
    outer loop
      vertex 4.80833 -21.0583 -17.999
      vertex 0.83147 -14.6056 -17.999
      vertex 0.923879 -14.4327 -17.999
    endloop
  endfacet
  facet normal 0 0 -1
    outer loop
      vertex 4.80833 -21.0583 -17.999
      vertex 0.707107 -14.7571 -17.999
      vertex 0.83147 -14.6056 -17.999
    endloop
  endfacet
  facet normal 0 0 -1
    outer loop
      vertex -1.20208 -24.2521 -17.999
      vertex 0.944468 -24.4635 -17.999
      vertex 0.650561 -24.6206 -17.999
    endloop
  endfacet
  facet normal 0 0 -1
    outer loop
      vertex 4.80833 -21.0583 -17.999
      vertex 0.55557 -14.8815 -17.999
      vertex 0.707107 -14.7571 -17.999
    endloop
  endfacet
  facet normal 0 0 -1
    outer loop
      vertex 4.80833 -21.0583 -17.999
      vertex 0.382683 -14.9739 -17.999
      vertex 0.55557 -14.8815 -17.999
    endloop
  endfacet
  facet normal 0 0 -1
    outer loop
      vertex -1.20208 -24.2521 -17.999
      vertex 0.650561 -24.6206 -17.999
      vertex 0.331653 -24.7173 -17.999
    endloop
  endfacet
  facet normal 0 0 -1
    outer loop
      vertex 4.80833 -21.0583 -17.999
      vertex 0.19509 -15.0308 -17.999
      vertex 0.382683 -14.9739 -17.999
    endloop
  endfacet
  facet normal 0 0 -1
    outer loop
      vertex -1.20208 -24.2521 -17.999
      vertex 0.331653 -24.7173 -17.999
      vertex 0 -24.75 -17.999
    endloop
  endfacet
  facet normal 0 0 -1
    outer loop
      vertex 1.20208 -24.2521 -17.999
      vertex -1.20208 -24.2521 -17.999
      vertex 0 -15.05 -17.999
    endloop
  endfacet
  facet normal 0 0 -1
    outer loop
      vertex 4.80833 -21.0583 -17.999
      vertex 0 -15.05 -17.999
      vertex 0.19509 -15.0308 -17.999
    endloop
  endfacet
  facet normal 0 0 -1
    outer loop
      vertex -1.20208 -24.2521 -17.999
      vertex 0 -24.75 -17.999
      vertex -0.331653 -24.7173 -17.999
    endloop
  endfacet
  facet normal 0 0 -1
    outer loop
      vertex -4.80833 -21.0583 -17.999
      vertex 0 -15.05 -17.999
      vertex -1.20208 -24.2521 -17.999
    endloop
  endfacet
  facet normal -0 0 -1
    outer loop
      vertex 0 -15.05 -17.999
      vertex -4.80833 -21.0583 -17.999
      vertex -0.19509 -15.0308 -17.999
    endloop
  endfacet
  facet normal 0 0 -1
    outer loop
      vertex -1.20208 -24.2521 -17.999
      vertex -0.331653 -24.7173 -17.999
      vertex -0.650561 -24.6206 -17.999
    endloop
  endfacet
  facet normal -0 0 -1
    outer loop
      vertex -0.19509 -15.0308 -17.999
      vertex -4.80833 -21.0583 -17.999
      vertex -0.382683 -14.9739 -17.999
    endloop
  endfacet
  facet normal -0 0 -1
    outer loop
      vertex -0.382683 -14.9739 -17.999
      vertex -4.80833 -21.0583 -17.999
      vertex -0.55557 -14.8815 -17.999
    endloop
  endfacet
  facet normal 0 0 -1
    outer loop
      vertex -5.65399 -20.0279 -17.999
      vertex -0.55557 -14.8815 -17.999
      vertex -4.80833 -21.0583 -17.999
    endloop
  endfacet
  facet normal 0 0 -1
    outer loop
      vertex -1.20208 -24.2521 -17.999
      vertex -0.650561 -24.6206 -17.999
      vertex -0.944468 -24.4635 -17.999
    endloop
  endfacet
  facet normal 0 0 -1
    outer loop
      vertex -6.28238 -18.8522 -17.999
      vertex -0.55557 -14.8815 -17.999
      vertex -5.65399 -20.0279 -17.999
    endloop
  endfacet
  facet normal -0 0 -1
    outer loop
      vertex -0.55557 -14.8815 -17.999
      vertex -6.28238 -18.8522 -17.999
      vertex -0.707107 -14.7571 -17.999
    endloop
  endfacet
  facet normal 0 0 -1
    outer loop
      vertex -6.66934 -17.5766 -17.999
      vertex -0.707107 -14.7571 -17.999
      vertex -6.28238 -18.8522 -17.999
    endloop
  endfacet
  facet normal 0 0 -1
    outer loop
      vertex 0.980784 -14.2451 -17.999
      vertex 6.8 -16.25 -17.999
      vertex 6.66934 -17.5766 -17.999
    endloop
  endfacet
  facet normal 0 0 -1
    outer loop
      vertex 0.980784 -14.2451 -17.999
      vertex 6.66934 -17.5766 -17.999
      vertex 6.28238 -18.8522 -17.999
    endloop
  endfacet
  facet normal 0 0 -1
    outer loop
      vertex 0.980784 -14.2451 -17.999
      vertex 6.28238 -18.8522 -17.999
      vertex 5.65399 -20.0279 -17.999
    endloop
  endfacet
  facet normal 0 0 -1
    outer loop
      vertex 0.980784 -14.2451 -17.999
      vertex 5.65399 -20.0279 -17.999
      vertex 4.80833 -21.0583 -17.999
    endloop
  endfacet
  facet normal 0 0 -1
    outer loop
      vertex 0 -15.05 -17.999
      vertex 4.80833 -21.0583 -17.999
      vertex 1.20208 -24.2521 -17.999
    endloop
  endfacet
  facet normal 0 0 -1
    outer loop
      vertex 6.8 -16.25 -17.999
      vertex 1 -14.05 -17.999
      vertex 6.8 -12.15 -17.999
    endloop
  endfacet
  facet normal 0 0 -1
    outer loop
      vertex 0.980784 -13.8549 -17.999
      vertex 6.8 -12.15 -17.999
      vertex 1 -14.05 -17.999
    endloop
  endfacet
  facet normal 0 0 -1
    outer loop
      vertex 0.923879 -13.6673 -17.999
      vertex 6.8 -12.15 -17.999
      vertex 0.980784 -13.8549 -17.999
    endloop
  endfacet
  facet normal 0 0 -1
    outer loop
      vertex 0.83147 -13.4944 -17.999
      vertex 6.8 -12.15 -17.999
      vertex 0.923879 -13.6673 -17.999
    endloop
  endfacet
  facet normal 0 0 -1
    outer loop
      vertex 0.707107 -13.3429 -17.999
      vertex 6.8 -12.15 -17.999
      vertex 0.83147 -13.4944 -17.999
    endloop
  endfacet
  facet normal 0 0 -1
    outer loop
      vertex 0.55557 -13.2185 -17.999
      vertex 6.8 -12.15 -17.999
      vertex 0.707107 -13.3429 -17.999
    endloop
  endfacet
  facet normal 0 0 -1
    outer loop
      vertex 0.382683 -13.1261 -17.999
      vertex 6.8 -12.15 -17.999
      vertex 0.55557 -13.2185 -17.999
    endloop
  endfacet
  facet normal 0 0 -1
    outer loop
      vertex 0.19509 -13.0692 -17.999
      vertex 6.8 -12.15 -17.999
      vertex 0.382683 -13.1261 -17.999
    endloop
  endfacet
  facet normal 0 0 -1
    outer loop
      vertex 0 -13.05 -17.999
      vertex 6.8 -12.15 -17.999
      vertex 0.19509 -13.0692 -17.999
    endloop
  endfacet
  facet normal 0 0 -1
    outer loop
      vertex -6.8 -12.15 -17.999
      vertex 0 -13.05 -17.999
      vertex -0.19509 -13.0692 -17.999
    endloop
  endfacet
  facet normal -0 0 -1
    outer loop
      vertex -0.707107 -14.7571 -17.999
      vertex -6.66934 -17.5766 -17.999
      vertex -0.83147 -14.6056 -17.999
    endloop
  endfacet
  facet normal 0 0 -1
    outer loop
      vertex -6.8 -16.25 -17.999
      vertex -0.83147 -14.6056 -17.999
      vertex -6.66934 -17.5766 -17.999
    endloop
  endfacet
  facet normal -0 0 -1
    outer loop
      vertex -0.83147 -14.6056 -17.999
      vertex -6.8 -16.25 -17.999
      vertex -0.923879 -14.4327 -17.999
    endloop
  endfacet
  facet normal -0 0 -1
    outer loop
      vertex -0.923879 -14.4327 -17.999
      vertex -6.8 -16.25 -17.999
      vertex -0.980784 -14.2451 -17.999
    endloop
  endfacet
  facet normal -0 0 -1
    outer loop
      vertex -0.980784 -14.2451 -17.999
      vertex -6.8 -16.25 -17.999
      vertex -1 -14.05 -17.999
    endloop
  endfacet
  facet normal 0 0 -1
    outer loop
      vertex -6.8 -12.15 -17.999
      vertex -1 -14.05 -17.999
      vertex -6.8 -16.25 -17.999
    endloop
  endfacet
  facet normal 0 0 -1
    outer loop
      vertex -1 -14.05 -17.999
      vertex -6.8 -12.15 -17.999
      vertex -0.980784 -13.8549 -17.999
    endloop
  endfacet
  facet normal 0 0 -1
    outer loop
      vertex -0.980784 -13.8549 -17.999
      vertex -6.8 -12.15 -17.999
      vertex -0.923879 -13.6673 -17.999
    endloop
  endfacet
  facet normal 0 0 -1
    outer loop
      vertex -0.923879 -13.6673 -17.999
      vertex -6.8 -12.15 -17.999
      vertex -0.83147 -13.4944 -17.999
    endloop
  endfacet
  facet normal 0 0 -1
    outer loop
      vertex -0.83147 -13.4944 -17.999
      vertex -6.8 -12.15 -17.999
      vertex -0.707107 -13.3429 -17.999
    endloop
  endfacet
  facet normal 0 0 -1
    outer loop
      vertex -0.707107 -13.3429 -17.999
      vertex -6.8 -12.15 -17.999
      vertex -0.55557 -13.2185 -17.999
    endloop
  endfacet
  facet normal 0 0 -1
    outer loop
      vertex 0 -13.05 -17.999
      vertex -6.8 -12.15 -17.999
      vertex 6.8 -12.15 -17.999
    endloop
  endfacet
  facet normal 0 0 -1
    outer loop
      vertex -0.382683 -13.1261 -17.999
      vertex -6.8 -12.15 -17.999
      vertex -0.19509 -13.0692 -17.999
    endloop
  endfacet
  facet normal 0 0 -1
    outer loop
      vertex -0.55557 -13.2185 -17.999
      vertex -6.8 -12.15 -17.999
      vertex -0.382683 -13.1261 -17.999
    endloop
  endfacet
  facet normal 0 0 -1
    outer loop
      vertex 1 14.05 -17.999
      vertex 6.8 16.25 -17.999
      vertex 6.8 12.15 -17.999
    endloop
  endfacet
  facet normal 0 0 -1
    outer loop
      vertex 0.923879 14.4327 -17.999
      vertex 6.8 16.25 -17.999
      vertex 0.980784 14.2451 -17.999
    endloop
  endfacet
  facet normal 0 0 -1
    outer loop
      vertex 0.83147 14.6056 -17.999
      vertex 6.8 16.25 -17.999
      vertex 0.923879 14.4327 -17.999
    endloop
  endfacet
  facet normal 0 0 -1
    outer loop
      vertex 0.707107 14.7571 -17.999
      vertex 6.66934 17.5766 -17.999
      vertex 0.83147 14.6056 -17.999
    endloop
  endfacet
  facet normal -0 0 -1
    outer loop
      vertex 6.66934 17.5766 -17.999
      vertex 0.707107 14.7571 -17.999
      vertex 6.28238 18.8522 -17.999
    endloop
  endfacet
  facet normal 0 0 -1
    outer loop
      vertex 6.8 16.25 -17.999
      vertex 1 14.05 -17.999
      vertex 0.980784 14.2451 -17.999
    endloop
  endfacet
  facet normal 0 0 -1
    outer loop
      vertex 6.8 12.15 -17.999
      vertex 0.980784 13.8549 -17.999
      vertex 1 14.05 -17.999
    endloop
  endfacet
  facet normal 0 0 -1
    outer loop
      vertex 6.8 12.15 -17.999
      vertex 0.923879 13.6673 -17.999
      vertex 0.980784 13.8549 -17.999
    endloop
  endfacet
  facet normal 0 0 -1
    outer loop
      vertex 6.8 12.15 -17.999
      vertex 0.83147 13.4944 -17.999
      vertex 0.923879 13.6673 -17.999
    endloop
  endfacet
  facet normal 0 0 -1
    outer loop
      vertex 6.8 12.15 -17.999
      vertex 0.707107 13.3429 -17.999
      vertex 0.83147 13.4944 -17.999
    endloop
  endfacet
  facet normal 0 0 -1
    outer loop
      vertex 6.8 12.15 -17.999
      vertex 0.55557 13.2185 -17.999
      vertex 0.707107 13.3429 -17.999
    endloop
  endfacet
  facet normal 0 0 -1
    outer loop
      vertex 6.8 12.15 -17.999
      vertex 0.382683 13.1261 -17.999
      vertex 0.55557 13.2185 -17.999
    endloop
  endfacet
  facet normal 0 0 -1
    outer loop
      vertex 6.8 12.15 -17.999
      vertex 0.19509 13.0692 -17.999
      vertex 0.382683 13.1261 -17.999
    endloop
  endfacet
  facet normal 0 0 -1
    outer loop
      vertex 6.8 12.15 -17.999
      vertex 0 13.05 -17.999
      vertex 0.19509 13.0692 -17.999
    endloop
  endfacet
  facet normal 0 0 -1
    outer loop
      vertex -6.8 12.15 -17.999
      vertex 0 13.05 -17.999
      vertex 6.8 12.15 -17.999
    endloop
  endfacet
  facet normal 0 0 -1
    outer loop
      vertex 0 15.05 -17.999
      vertex -4.80833 21.0583 -17.999
      vertex -1.20208 24.2521 -17.999
    endloop
  endfacet
  facet normal 0 0 -1
    outer loop
      vertex -6.8 12.15 -17.999
      vertex -1 14.05 -17.999
      vertex -0.980784 13.8549 -17.999
    endloop
  endfacet
  facet normal 0 0 -1
    outer loop
      vertex -6.8 12.15 -17.999
      vertex -0.980784 13.8549 -17.999
      vertex -0.923879 13.6673 -17.999
    endloop
  endfacet
  facet normal 0 0 -1
    outer loop
      vertex -0.980784 14.2451 -17.999
      vertex -5.65399 20.0279 -17.999
      vertex -4.80833 21.0583 -17.999
    endloop
  endfacet
  facet normal 0 0 -1
    outer loop
      vertex -6.8 12.15 -17.999
      vertex -0.923879 13.6673 -17.999
      vertex -0.83147 13.4944 -17.999
    endloop
  endfacet
  facet normal 0 0 -1
    outer loop
      vertex -0.980784 14.2451 -17.999
      vertex -6.28238 18.8522 -17.999
      vertex -5.65399 20.0279 -17.999
    endloop
  endfacet
  facet normal 0 0 -1
    outer loop
      vertex -6.8 12.15 -17.999
      vertex -0.83147 13.4944 -17.999
      vertex -0.707107 13.3429 -17.999
    endloop
  endfacet
  facet normal 0 0 -1
    outer loop
      vertex -0.980784 14.2451 -17.999
      vertex -6.66934 17.5766 -17.999
      vertex -6.28238 18.8522 -17.999
    endloop
  endfacet
  facet normal 0 0 -1
    outer loop
      vertex -6.8 12.15 -17.999
      vertex -0.707107 13.3429 -17.999
      vertex -0.55557 13.2185 -17.999
    endloop
  endfacet
  facet normal -0 0 -1
    outer loop
      vertex 0 13.05 -17.999
      vertex -6.8 12.15 -17.999
      vertex -0.19509 13.0692 -17.999
    endloop
  endfacet
  facet normal 0 0 -1
    outer loop
      vertex -6.8 12.15 -17.999
      vertex -0.382683 13.1261 -17.999
      vertex -0.19509 13.0692 -17.999
    endloop
  endfacet
  facet normal 0 0 -1
    outer loop
      vertex -6.8 12.15 -17.999
      vertex -0.55557 13.2185 -17.999
      vertex -0.382683 13.1261 -17.999
    endloop
  endfacet
  facet normal -0 0 -1
    outer loop
      vertex -1 14.05 -17.999
      vertex -6.8 12.15 -17.999
      vertex -6.8 16.25 -17.999
    endloop
  endfacet
  facet normal 0 0 -1
    outer loop
      vertex -0.980784 14.2451 -17.999
      vertex -6.8 16.25 -17.999
      vertex -6.66934 17.5766 -17.999
    endloop
  endfacet
  facet normal -0 0 -1
    outer loop
      vertex 6.8 16.25 -17.999
      vertex 0.83147 14.6056 -17.999
      vertex 6.66934 17.5766 -17.999
    endloop
  endfacet
  facet normal 0 0 -1
    outer loop
      vertex 0.55557 14.8815 -17.999
      vertex 6.28238 18.8522 -17.999
      vertex 0.707107 14.7571 -17.999
    endloop
  endfacet
  facet normal -0 0 -1
    outer loop
      vertex 6.28238 18.8522 -17.999
      vertex 0.55557 14.8815 -17.999
      vertex 5.65399 20.0279 -17.999
    endloop
  endfacet
  facet normal -0 0 -1
    outer loop
      vertex 5.65399 20.0279 -17.999
      vertex 0.55557 14.8815 -17.999
      vertex 4.80833 21.0583 -17.999
    endloop
  endfacet
  facet normal 0 0 -1
    outer loop
      vertex 0.382683 14.9739 -17.999
      vertex 4.80833 21.0583 -17.999
      vertex 0.55557 14.8815 -17.999
    endloop
  endfacet
  facet normal 0 0 -1
    outer loop
      vertex 0.19509 15.0308 -17.999
      vertex 4.80833 21.0583 -17.999
      vertex 0.382683 14.9739 -17.999
    endloop
  endfacet
  facet normal 0 0 -1
    outer loop
      vertex 0 15.05 -17.999
      vertex 4.80833 21.0583 -17.999
      vertex 0.19509 15.0308 -17.999
    endloop
  endfacet
  facet normal -0 0 -1
    outer loop
      vertex 4.80833 21.0583 -17.999
      vertex 0 15.05 -17.999
      vertex 1.20208 24.2521 -17.999
    endloop
  endfacet
  facet normal 0 0 -1
    outer loop
      vertex -1.20208 24.2521 -17.999
      vertex 1.20208 24.2521 -17.999
      vertex 0 15.05 -17.999
    endloop
  endfacet
  facet normal -0 0 -1
    outer loop
      vertex 0.944468 24.4635 -17.999
      vertex -1.20208 24.2521 -17.999
      vertex 0.650561 24.6206 -17.999
    endloop
  endfacet
  facet normal 0 0 -1
    outer loop
      vertex 1.20208 24.2521 -17.999
      vertex -1.20208 24.2521 -17.999
      vertex 0.944468 24.4635 -17.999
    endloop
  endfacet
  facet normal -0 0 -1
    outer loop
      vertex 0.650561 24.6206 -17.999
      vertex -1.20208 24.2521 -17.999
      vertex 0.331653 24.7173 -17.999
    endloop
  endfacet
  facet normal 0 0 -1
    outer loop
      vertex -4.80833 21.0583 -17.999
      vertex 0 15.05 -17.999
      vertex -0.19509 15.0308 -17.999
    endloop
  endfacet
  facet normal -0 0 -1
    outer loop
      vertex 0.331653 24.7173 -17.999
      vertex -1.20208 24.2521 -17.999
      vertex 0 24.75 -17.999
    endloop
  endfacet
  facet normal 0 0 -1
    outer loop
      vertex -4.80833 21.0583 -17.999
      vertex -0.19509 15.0308 -17.999
      vertex -0.382683 14.9739 -17.999
    endloop
  endfacet
  facet normal 0 0 -1
    outer loop
      vertex -4.80833 21.0583 -17.999
      vertex -0.382683 14.9739 -17.999
      vertex -0.55557 14.8815 -17.999
    endloop
  endfacet
  facet normal 0 0 -1
    outer loop
      vertex 0 24.75 -17.999
      vertex -1.20208 24.2521 -17.999
      vertex -0.331653 24.7173 -17.999
    endloop
  endfacet
  facet normal 0 0 -1
    outer loop
      vertex -4.80833 21.0583 -17.999
      vertex -0.55557 14.8815 -17.999
      vertex -0.707107 14.7571 -17.999
    endloop
  endfacet
  facet normal 0 0 -1
    outer loop
      vertex -4.80833 21.0583 -17.999
      vertex -0.707107 14.7571 -17.999
      vertex -0.83147 14.6056 -17.999
    endloop
  endfacet
  facet normal 0 0 -1
    outer loop
      vertex -4.80833 21.0583 -17.999
      vertex -0.83147 14.6056 -17.999
      vertex -0.923879 14.4327 -17.999
    endloop
  endfacet
  facet normal 0 0 -1
    outer loop
      vertex -0.331653 24.7173 -17.999
      vertex -1.20208 24.2521 -17.999
      vertex -0.650561 24.6206 -17.999
    endloop
  endfacet
  facet normal 0 0 -1
    outer loop
      vertex -4.80833 21.0583 -17.999
      vertex -0.923879 14.4327 -17.999
      vertex -0.980784 14.2451 -17.999
    endloop
  endfacet
  facet normal 0 0 -1
    outer loop
      vertex -6.8 16.25 -17.999
      vertex -0.980784 14.2451 -17.999
      vertex -1 14.05 -17.999
    endloop
  endfacet
  facet normal 0 0 -1
    outer loop
      vertex -0.650561 24.6206 -17.999
      vertex -1.20208 24.2521 -17.999
      vertex -0.944468 24.4635 -17.999
    endloop
  endfacet
  facet normal -0.471405 -0.881917 0
    outer loop
      vertex -0.944468 -24.4635 -17.999
      vertex -0.650561 -24.6206 -16.399
      vertex -0.944468 -24.4635 -16.399
    endloop
  endfacet
  facet normal -0.471405 -0.881917 -0
    outer loop
      vertex -0.650561 -24.6206 -16.399
      vertex -0.944468 -24.4635 -17.999
      vertex -0.650561 -24.6206 -17.999
    endloop
  endfacet
  facet normal 0.471405 -0.881917 0
    outer loop
      vertex 0.650561 -24.6206 -17.999
      vertex 0.944468 -24.4635 -16.399
      vertex 0.650561 -24.6206 -16.399
    endloop
  endfacet
  facet normal 0.471405 -0.881917 0
    outer loop
      vertex 0.944468 -24.4635 -16.399
      vertex 0.650561 -24.6206 -17.999
      vertex 0.944468 -24.4635 -17.999
    endloop
  endfacet
  facet normal 0 0 1
    outer loop
      vertex -6.8 16.25 -16.399
      vertex 6.8 16.25 -16.399
      vertex 6.66934 17.5766 -16.399
    endloop
  endfacet
  facet normal 0 0 1
    outer loop
      vertex -6.8 16.25 -16.399
      vertex 6.66934 17.5766 -16.399
      vertex 6.28238 18.8522 -16.399
    endloop
  endfacet
  facet normal 0 0 1
    outer loop
      vertex -6.8 16.25 -16.399
      vertex 6.28238 18.8522 -16.399
      vertex 5.65399 20.0279 -16.399
    endloop
  endfacet
  facet normal 0 0 1
    outer loop
      vertex -6.8 16.25 -16.399
      vertex 5.65399 20.0279 -16.399
      vertex 4.80833 21.0583 -16.399
    endloop
  endfacet
  facet normal 0 0 1
    outer loop
      vertex -4.80833 21.0583 -16.399
      vertex 4.80833 21.0583 -16.399
      vertex 1.20208 24.2521 -16.399
    endloop
  endfacet
  facet normal 0 0 1
    outer loop
      vertex -1.20208 24.2521 -16.399
      vertex 1.20208 24.2521 -16.399
      vertex 0.944468 24.4635 -16.399
    endloop
  endfacet
  facet normal 0 0 1
    outer loop
      vertex -1.20208 24.2521 -16.399
      vertex 0.944468 24.4635 -16.399
      vertex 0.650561 24.6206 -16.399
    endloop
  endfacet
  facet normal 0 0 1
    outer loop
      vertex -1.20208 24.2521 -16.399
      vertex 0.650561 24.6206 -16.399
      vertex 0.331653 24.7173 -16.399
    endloop
  endfacet
  facet normal 0 0 1
    outer loop
      vertex -1.20208 24.2521 -16.399
      vertex 0.331653 24.7173 -16.399
      vertex 0 24.75 -16.399
    endloop
  endfacet
  facet normal 0 0 1
    outer loop
      vertex -1.20208 24.2521 -16.399
      vertex 0 24.75 -16.399
      vertex -0.331653 24.7173 -16.399
    endloop
  endfacet
  facet normal 0 0 1
    outer loop
      vertex -1.20208 24.2521 -16.399
      vertex -0.331653 24.7173 -16.399
      vertex -0.650561 24.6206 -16.399
    endloop
  endfacet
  facet normal 0 0 1
    outer loop
      vertex -1.20208 24.2521 -16.399
      vertex -0.650561 24.6206 -16.399
      vertex -0.944468 24.4635 -16.399
    endloop
  endfacet
  facet normal 0 0 1
    outer loop
      vertex 1.20208 24.2521 -16.399
      vertex -1.20208 24.2521 -16.399
      vertex -4.80833 21.0583 -16.399
    endloop
  endfacet
  facet normal 0 0 1
    outer loop
      vertex -6.8 16.25 -16.399
      vertex 4.80833 21.0583 -16.399
      vertex -4.80833 21.0583 -16.399
    endloop
  endfacet
  facet normal 0 0 1
    outer loop
      vertex -6.8 16.25 -16.399
      vertex -4.80833 21.0583 -16.399
      vertex -5.65399 20.0279 -16.399
    endloop
  endfacet
  facet normal 0 0 1
    outer loop
      vertex -6.8 16.25 -16.399
      vertex -5.65399 20.0279 -16.399
      vertex -6.28238 18.8522 -16.399
    endloop
  endfacet
  facet normal 0 0 1
    outer loop
      vertex -6.8 16.25 -16.399
      vertex -6.28238 18.8522 -16.399
      vertex -6.66934 17.5766 -16.399
    endloop
  endfacet
  facet normal 0 0 1
    outer loop
      vertex 6.8 16.25 -16.399
      vertex -6.8 16.25 -16.399
      vertex 6.8 12.15 -16.399
    endloop
  endfacet
  facet normal 0 0 1
    outer loop
      vertex 6.8 12.15 -16.399
      vertex -6.8 16.25 -16.399
      vertex -6.8 12.15 -16.399
    endloop
  endfacet
  facet normal 0 0 1
    outer loop
      vertex -6.8 -16.25 -16.399
      vertex 6.8 -16.25 -16.399
      vertex 6.8 -12.15 -16.399
    endloop
  endfacet
  facet normal 0 0 1
    outer loop
      vertex 6.8 -16.25 -16.399
      vertex -6.8 -16.25 -16.399
      vertex 6.66934 -17.5766 -16.399
    endloop
  endfacet
  facet normal 0 0 1
    outer loop
      vertex 6.66934 -17.5766 -16.399
      vertex -6.8 -16.25 -16.399
      vertex 6.28238 -18.8522 -16.399
    endloop
  endfacet
  facet normal 0 0 1
    outer loop
      vertex 6.28238 -18.8522 -16.399
      vertex -6.8 -16.25 -16.399
      vertex 5.65399 -20.0279 -16.399
    endloop
  endfacet
  facet normal 0 0 1
    outer loop
      vertex 5.65399 -20.0279 -16.399
      vertex -6.8 -16.25 -16.399
      vertex 4.80833 -21.0583 -16.399
    endloop
  endfacet
  facet normal 0 0 1
    outer loop
      vertex 4.80833 -21.0583 -16.399
      vertex -4.80833 -21.0583 -16.399
      vertex 1.20208 -24.2521 -16.399
    endloop
  endfacet
  facet normal 0 -0 1
    outer loop
      vertex -1.20208 -24.2521 -16.399
      vertex 1.20208 -24.2521 -16.399
      vertex -4.80833 -21.0583 -16.399
    endloop
  endfacet
  facet normal 0 0 1
    outer loop
      vertex 1.20208 -24.2521 -16.399
      vertex -1.20208 -24.2521 -16.399
      vertex 0.944468 -24.4635 -16.399
    endloop
  endfacet
  facet normal 0 0 1
    outer loop
      vertex 0.650561 -24.6206 -16.399
      vertex -1.20208 -24.2521 -16.399
      vertex 0.331653 -24.7173 -16.399
    endloop
  endfacet
  facet normal 0 0 1
    outer loop
      vertex 0.331653 -24.7173 -16.399
      vertex -1.20208 -24.2521 -16.399
      vertex 0 -24.75 -16.399
    endloop
  endfacet
  facet normal 0 0 1
    outer loop
      vertex 0 -24.75 -16.399
      vertex -1.20208 -24.2521 -16.399
      vertex -0.331653 -24.7173 -16.399
    endloop
  endfacet
  facet normal 0 0 1
    outer loop
      vertex -0.331653 -24.7173 -16.399
      vertex -1.20208 -24.2521 -16.399
      vertex -0.650561 -24.6206 -16.399
    endloop
  endfacet
  facet normal 0 0 1
    outer loop
      vertex -0.650561 -24.6206 -16.399
      vertex -1.20208 -24.2521 -16.399
      vertex -0.944468 -24.4635 -16.399
    endloop
  endfacet
  facet normal 0 0 1
    outer loop
      vertex 0.944468 -24.4635 -16.399
      vertex -1.20208 -24.2521 -16.399
      vertex 0.650561 -24.6206 -16.399
    endloop
  endfacet
  facet normal 0 0 1
    outer loop
      vertex 4.80833 -21.0583 -16.399
      vertex -6.8 -16.25 -16.399
      vertex -4.80833 -21.0583 -16.399
    endloop
  endfacet
  facet normal 0 0 1
    outer loop
      vertex -4.80833 -21.0583 -16.399
      vertex -6.8 -16.25 -16.399
      vertex -5.65399 -20.0279 -16.399
    endloop
  endfacet
  facet normal 0 0 1
    outer loop
      vertex -5.65399 -20.0279 -16.399
      vertex -6.8 -16.25 -16.399
      vertex -6.28238 -18.8522 -16.399
    endloop
  endfacet
  facet normal 0 0 1
    outer loop
      vertex -6.8 -16.25 -16.399
      vertex 6.8 -12.15 -16.399
      vertex -6.8 -12.15 -16.399
    endloop
  endfacet
  facet normal 0 0 1
    outer loop
      vertex -6.28238 -18.8522 -16.399
      vertex -6.8 -16.25 -16.399
      vertex -6.66934 -17.5766 -16.399
    endloop
  endfacet
  facet normal -0.290176 -0.956973 0
    outer loop
      vertex -0.650561 -24.6206 -17.999
      vertex -0.331653 -24.7173 -16.399
      vertex -0.650561 -24.6206 -16.399
    endloop
  endfacet
  facet normal -0.290176 -0.956973 -0
    outer loop
      vertex -0.331653 -24.7173 -16.399
      vertex -0.650561 -24.6206 -17.999
      vertex -0.331653 -24.7173 -17.999
    endloop
  endfacet
  facet normal 0.663 -0.74862 0
    outer loop
      vertex 1.20208 -24.2521 -17.999
      vertex 4.80833 -21.0583 -16.399
      vertex 1.20208 -24.2521 -16.399
    endloop
  endfacet
  facet normal 0.663 -0.74862 0
    outer loop
      vertex 4.80833 -21.0583 -16.399
      vertex 1.20208 -24.2521 -17.999
      vertex 4.80833 -21.0583 -17.999
    endloop
  endfacet
  facet normal -0.0981212 -0.995174 0
    outer loop
      vertex -0.331653 -24.7173 -17.999
      vertex 0 -24.75 -16.399
      vertex -0.331653 -24.7173 -16.399
    endloop
  endfacet
  facet normal -0.0981212 -0.995174 -0
    outer loop
      vertex 0 -24.75 -16.399
      vertex -0.331653 -24.7173 -17.999
      vertex 0 -24.75 -17.999
    endloop
  endfacet
  facet normal -0.956944 -0.290271 0
    outer loop
      vertex 0.980784 -13.8549 -17.999
      vertex 0.923879 -13.6673 -17.998
      vertex 0.923879 -13.6673 -17.999
    endloop
  endfacet
  facet normal -0.956944 -0.290271 0
    outer loop
      vertex 0.923879 -13.6673 -17.998
      vertex 0.980784 -13.8549 -17.999
      vertex 0.980784 -13.8549 -17.998
    endloop
  endfacet
  facet normal -0.995185 -0.0980188 0
    outer loop
      vertex 1 -14.05 -17.999
      vertex 0.980784 -13.8549 -17.998
      vertex 0.980784 -13.8549 -17.999
    endloop
  endfacet
  facet normal -0.995185 -0.0980188 0
    outer loop
      vertex 0.980784 -13.8549 -17.998
      vertex 1 -14.05 -17.999
      vertex 1 -14.05 -17.998
    endloop
  endfacet
  facet normal -0.881938 -0.471365 0
    outer loop
      vertex 0.923879 -13.6673 -17.999
      vertex 0.83147 -13.4944 -17.998
      vertex 0.83147 -13.4944 -17.999
    endloop
  endfacet
  facet normal -0.881938 -0.471365 0
    outer loop
      vertex 0.83147 -13.4944 -17.998
      vertex 0.923879 -13.6673 -17.999
      vertex 0.923879 -13.6673 -17.998
    endloop
  endfacet
  facet normal 0.471357 0.881943 -0
    outer loop
      vertex -0.382683 -14.9739 -17.999
      vertex -0.55557 -14.8815 -17.998
      vertex -0.382683 -14.9739 -17.998
    endloop
  endfacet
  facet normal 0.471357 0.881943 0
    outer loop
      vertex -0.55557 -14.8815 -17.998
      vertex -0.382683 -14.9739 -17.999
      vertex -0.55557 -14.8815 -17.999
    endloop
  endfacet
  facet normal -0.772935 -0.634485 0
    outer loop
      vertex 0.83147 -13.4944 -17.999
      vertex 0.707107 -13.3429 -17.998
      vertex 0.707107 -13.3429 -17.999
    endloop
  endfacet
  facet normal -0.772935 -0.634485 0
    outer loop
      vertex 0.707107 -13.3429 -17.998
      vertex 0.83147 -13.4944 -17.999
      vertex 0.83147 -13.4944 -17.998
    endloop
  endfacet
  facet normal 0.471357 -0.881943 0
    outer loop
      vertex -0.55557 -13.2185 -17.999
      vertex -0.382683 -13.1261 -17.998
      vertex -0.55557 -13.2185 -17.998
    endloop
  endfacet
  facet normal 0.471357 -0.881943 0
    outer loop
      vertex -0.382683 -13.1261 -17.998
      vertex -0.55557 -13.2185 -17.999
      vertex -0.382683 -13.1261 -17.999
    endloop
  endfacet
  facet normal -0.471357 -0.881943 0
    outer loop
      vertex 0.382683 -13.1261 -17.999
      vertex 0.55557 -13.2185 -17.998
      vertex 0.382683 -13.1261 -17.998
    endloop
  endfacet
  facet normal -0.471357 -0.881943 -0
    outer loop
      vertex 0.55557 -13.2185 -17.998
      vertex 0.382683 -13.1261 -17.999
      vertex 0.55557 -13.2185 -17.999
    endloop
  endfacet
  facet normal 0.772935 0.634485 0
    outer loop
      vertex -0.707107 -14.7571 -17.998
      vertex -0.83147 -14.6056 -17.999
      vertex -0.83147 -14.6056 -17.998
    endloop
  endfacet
  facet normal 0.772935 0.634485 0
    outer loop
      vertex -0.83147 -14.6056 -17.999
      vertex -0.707107 -14.7571 -17.998
      vertex -0.707107 -14.7571 -17.999
    endloop
  endfacet
  facet normal -0.881938 0.471365 0
    outer loop
      vertex 0.83147 -14.6056 -17.999
      vertex 0.923879 -14.4327 -17.998
      vertex 0.923879 -14.4327 -17.999
    endloop
  endfacet
  facet normal -0.881938 0.471365 0
    outer loop
      vertex 0.923879 -14.4327 -17.998
      vertex 0.83147 -14.6056 -17.999
      vertex 0.83147 -14.6056 -17.998
    endloop
  endfacet
  facet normal -0.634505 -0.772918 0
    outer loop
      vertex 0.55557 -13.2185 -17.999
      vertex 0.707107 -13.3429 -17.998
      vertex 0.55557 -13.2185 -17.998
    endloop
  endfacet
  facet normal -0.634505 -0.772918 -0
    outer loop
      vertex 0.707107 -13.3429 -17.998
      vertex 0.55557 -13.2185 -17.999
      vertex 0.707107 -13.3429 -17.999
    endloop
  endfacet
  facet normal -0.290258 0.956948 0
    outer loop
      vertex 0.382683 -14.9739 -17.999
      vertex 0.19509 -15.0308 -17.998
      vertex 0.382683 -14.9739 -17.998
    endloop
  endfacet
  facet normal -0.290258 0.956948 0
    outer loop
      vertex 0.19509 -15.0308 -17.998
      vertex 0.382683 -14.9739 -17.999
      vertex 0.19509 -15.0308 -17.999
    endloop
  endfacet
  facet normal 0.290258 -0.956948 0
    outer loop
      vertex -0.382683 -13.1261 -17.999
      vertex -0.19509 -13.0692 -17.998
      vertex -0.382683 -13.1261 -17.998
    endloop
  endfacet
  facet normal 0.290258 -0.956948 0
    outer loop
      vertex -0.19509 -13.0692 -17.998
      vertex -0.382683 -13.1261 -17.999
      vertex -0.19509 -13.0692 -17.999
    endloop
  endfacet
  facet normal 0.995185 -0.0980188 0
    outer loop
      vertex -1 -14.05 -17.998
      vertex -0.980784 -13.8549 -17.999
      vertex -0.980784 -13.8549 -17.998
    endloop
  endfacet
  facet normal 0.995185 -0.0980188 0
    outer loop
      vertex -0.980784 -13.8549 -17.999
      vertex -1 -14.05 -17.998
      vertex -1 -14.05 -17.999
    endloop
  endfacet
  facet normal -0.772935 0.634485 0
    outer loop
      vertex 0.707107 -14.7571 -17.999
      vertex 0.83147 -14.6056 -17.998
      vertex 0.83147 -14.6056 -17.999
    endloop
  endfacet
  facet normal -0.772935 0.634485 0
    outer loop
      vertex 0.83147 -14.6056 -17.998
      vertex 0.707107 -14.7571 -17.999
      vertex 0.707107 -14.7571 -17.998
    endloop
  endfacet
  facet normal -0.995185 0.0980188 0
    outer loop
      vertex 0.980784 -14.2451 -17.999
      vertex 1 -14.05 -17.998
      vertex 1 -14.05 -17.999
    endloop
  endfacet
  facet normal -0.995185 0.0980188 0
    outer loop
      vertex 1 -14.05 -17.998
      vertex 0.980784 -14.2451 -17.999
      vertex 0.980784 -14.2451 -17.998
    endloop
  endfacet
  facet normal -0.634505 0.772918 0
    outer loop
      vertex 0.707107 -14.7571 -17.999
      vertex 0.55557 -14.8815 -17.998
      vertex 0.707107 -14.7571 -17.998
    endloop
  endfacet
  facet normal -0.634505 0.772918 0
    outer loop
      vertex 0.55557 -14.8815 -17.998
      vertex 0.707107 -14.7571 -17.999
      vertex 0.55557 -14.8815 -17.999
    endloop
  endfacet
  facet normal 0.881938 -0.471365 0
    outer loop
      vertex -0.923879 -13.6673 -17.998
      vertex -0.83147 -13.4944 -17.999
      vertex -0.83147 -13.4944 -17.998
    endloop
  endfacet
  facet normal 0.881938 -0.471365 0
    outer loop
      vertex -0.83147 -13.4944 -17.999
      vertex -0.923879 -13.6673 -17.998
      vertex -0.923879 -13.6673 -17.999
    endloop
  endfacet
  facet normal -0.471357 0.881943 0
    outer loop
      vertex 0.55557 -14.8815 -17.999
      vertex 0.382683 -14.9739 -17.998
      vertex 0.55557 -14.8815 -17.998
    endloop
  endfacet
  facet normal -0.471357 0.881943 0
    outer loop
      vertex 0.382683 -14.9739 -17.998
      vertex 0.55557 -14.8815 -17.999
      vertex 0.382683 -14.9739 -17.999
    endloop
  endfacet
  facet normal -0.0979429 0.995192 0
    outer loop
      vertex 0.19509 -15.0308 -17.999
      vertex 0 -15.05 -17.998
      vertex 0.19509 -15.0308 -17.998
    endloop
  endfacet
  facet normal -0.0979429 0.995192 0
    outer loop
      vertex 0 -15.05 -17.998
      vertex 0.19509 -15.0308 -17.999
      vertex 0 -15.05 -17.999
    endloop
  endfacet
  facet normal 0.634505 -0.772918 0
    outer loop
      vertex -0.707107 -13.3429 -17.999
      vertex -0.55557 -13.2185 -17.998
      vertex -0.707107 -13.3429 -17.998
    endloop
  endfacet
  facet normal 0.634505 -0.772918 0
    outer loop
      vertex -0.55557 -13.2185 -17.998
      vertex -0.707107 -13.3429 -17.999
      vertex -0.55557 -13.2185 -17.999
    endloop
  endfacet
  facet normal -0.0979429 -0.995192 0
    outer loop
      vertex 0 -13.05 -17.999
      vertex 0.19509 -13.0692 -17.998
      vertex 0 -13.05 -17.998
    endloop
  endfacet
  facet normal -0.0979429 -0.995192 -0
    outer loop
      vertex 0.19509 -13.0692 -17.998
      vertex 0 -13.05 -17.999
      vertex 0.19509 -13.0692 -17.999
    endloop
  endfacet
  facet normal 0.0979429 0.995192 -0
    outer loop
      vertex 0 -15.05 -17.999
      vertex -0.19509 -15.0308 -17.998
      vertex 0 -15.05 -17.998
    endloop
  endfacet
  facet normal 0.0979429 0.995192 0
    outer loop
      vertex -0.19509 -15.0308 -17.998
      vertex 0 -15.05 -17.999
      vertex -0.19509 -15.0308 -17.999
    endloop
  endfacet
  facet normal 0.290258 0.956948 -0
    outer loop
      vertex -0.19509 -15.0308 -17.999
      vertex -0.382683 -14.9739 -17.998
      vertex -0.19509 -15.0308 -17.998
    endloop
  endfacet
  facet normal 0.290258 0.956948 0
    outer loop
      vertex -0.382683 -14.9739 -17.998
      vertex -0.19509 -15.0308 -17.999
      vertex -0.382683 -14.9739 -17.999
    endloop
  endfacet
  facet normal 0.634505 0.772918 -0
    outer loop
      vertex -0.55557 -14.8815 -17.999
      vertex -0.707107 -14.7571 -17.998
      vertex -0.55557 -14.8815 -17.998
    endloop
  endfacet
  facet normal 0.634505 0.772918 0
    outer loop
      vertex -0.707107 -14.7571 -17.998
      vertex -0.55557 -14.8815 -17.999
      vertex -0.707107 -14.7571 -17.999
    endloop
  endfacet
  facet normal 0.881938 0.471365 0
    outer loop
      vertex -0.83147 -14.6056 -17.998
      vertex -0.923879 -14.4327 -17.999
      vertex -0.923879 -14.4327 -17.998
    endloop
  endfacet
  facet normal 0.881938 0.471365 0
    outer loop
      vertex -0.923879 -14.4327 -17.999
      vertex -0.83147 -14.6056 -17.998
      vertex -0.83147 -14.6056 -17.999
    endloop
  endfacet
  facet normal 0 0 -1
    outer loop
      vertex 0.980784 -14.2451 -17.998
      vertex 0.980784 -13.8549 -17.998
      vertex 1 -14.05 -17.998
    endloop
  endfacet
  facet normal 0 0 -1
    outer loop
      vertex 0.923879 -14.4327 -17.998
      vertex 0.980784 -13.8549 -17.998
      vertex 0.980784 -14.2451 -17.998
    endloop
  endfacet
  facet normal 0 0 -1
    outer loop
      vertex 0.923879 -14.4327 -17.998
      vertex 0.923879 -13.6673 -17.998
      vertex 0.980784 -13.8549 -17.998
    endloop
  endfacet
  facet normal 0 0 -1
    outer loop
      vertex 0.83147 -14.6056 -17.998
      vertex 0.923879 -13.6673 -17.998
      vertex 0.923879 -14.4327 -17.998
    endloop
  endfacet
  facet normal 0 0 -1
    outer loop
      vertex 0.83147 -14.6056 -17.998
      vertex 0.83147 -13.4944 -17.998
      vertex 0.923879 -13.6673 -17.998
    endloop
  endfacet
  facet normal 0 0 -1
    outer loop
      vertex 0.707107 -14.7571 -17.998
      vertex 0.83147 -13.4944 -17.998
      vertex 0.83147 -14.6056 -17.998
    endloop
  endfacet
  facet normal 0 0 -1
    outer loop
      vertex 0.707107 -14.7571 -17.998
      vertex 0.707107 -13.3429 -17.998
      vertex 0.83147 -13.4944 -17.998
    endloop
  endfacet
  facet normal 0 0 -1
    outer loop
      vertex 0.55557 -14.8815 -17.998
      vertex 0.707107 -13.3429 -17.998
      vertex 0.707107 -14.7571 -17.998
    endloop
  endfacet
  facet normal 0 0 -1
    outer loop
      vertex 0.55557 -14.8815 -17.998
      vertex 0.55557 -13.2185 -17.998
      vertex 0.707107 -13.3429 -17.998
    endloop
  endfacet
  facet normal 0 0 -1
    outer loop
      vertex 0.382683 -14.9739 -17.998
      vertex 0.55557 -13.2185 -17.998
      vertex 0.55557 -14.8815 -17.998
    endloop
  endfacet
  facet normal 0 0 -1
    outer loop
      vertex 0.382683 -14.9739 -17.998
      vertex 0.382683 -13.1261 -17.998
      vertex 0.55557 -13.2185 -17.998
    endloop
  endfacet
  facet normal 0 0 -1
    outer loop
      vertex 0.19509 -15.0308 -17.998
      vertex 0.382683 -13.1261 -17.998
      vertex 0.382683 -14.9739 -17.998
    endloop
  endfacet
  facet normal 0 0 -1
    outer loop
      vertex 0.19509 -15.0308 -17.998
      vertex 0.19509 -13.0692 -17.998
      vertex 0.382683 -13.1261 -17.998
    endloop
  endfacet
  facet normal 0 0 -1
    outer loop
      vertex 0 -15.05 -17.998
      vertex 0.19509 -13.0692 -17.998
      vertex 0.19509 -15.0308 -17.998
    endloop
  endfacet
  facet normal 0 0 -1
    outer loop
      vertex 0 -15.05 -17.998
      vertex 0 -13.05 -17.998
      vertex 0.19509 -13.0692 -17.998
    endloop
  endfacet
  facet normal 0 0 -1
    outer loop
      vertex -0.19509 -15.0308 -17.998
      vertex 0 -13.05 -17.998
      vertex 0 -15.05 -17.998
    endloop
  endfacet
  facet normal 0 0 -1
    outer loop
      vertex -0.19509 -15.0308 -17.998
      vertex -0.19509 -13.0692 -17.998
      vertex 0 -13.05 -17.998
    endloop
  endfacet
  facet normal 0 0 -1
    outer loop
      vertex -0.382683 -14.9739 -17.998
      vertex -0.19509 -13.0692 -17.998
      vertex -0.19509 -15.0308 -17.998
    endloop
  endfacet
  facet normal 0 0 -1
    outer loop
      vertex -0.382683 -14.9739 -17.998
      vertex -0.382683 -13.1261 -17.998
      vertex -0.19509 -13.0692 -17.998
    endloop
  endfacet
  facet normal 0 0 -1
    outer loop
      vertex -0.55557 -14.8815 -17.998
      vertex -0.382683 -13.1261 -17.998
      vertex -0.382683 -14.9739 -17.998
    endloop
  endfacet
  facet normal 0 0 -1
    outer loop
      vertex -0.55557 -14.8815 -17.998
      vertex -0.55557 -13.2185 -17.998
      vertex -0.382683 -13.1261 -17.998
    endloop
  endfacet
  facet normal 0 0 -1
    outer loop
      vertex -0.707107 -14.7571 -17.998
      vertex -0.55557 -13.2185 -17.998
      vertex -0.55557 -14.8815 -17.998
    endloop
  endfacet
  facet normal 0 0 -1
    outer loop
      vertex -0.707107 -14.7571 -17.998
      vertex -0.707107 -13.3429 -17.998
      vertex -0.55557 -13.2185 -17.998
    endloop
  endfacet
  facet normal 0 0 -1
    outer loop
      vertex -0.83147 -14.6056 -17.998
      vertex -0.707107 -13.3429 -17.998
      vertex -0.707107 -14.7571 -17.998
    endloop
  endfacet
  facet normal 0 0 -1
    outer loop
      vertex -0.83147 -14.6056 -17.998
      vertex -0.83147 -13.4944 -17.998
      vertex -0.707107 -13.3429 -17.998
    endloop
  endfacet
  facet normal 0 0 -1
    outer loop
      vertex -0.923879 -14.4327 -17.998
      vertex -0.83147 -13.4944 -17.998
      vertex -0.83147 -14.6056 -17.998
    endloop
  endfacet
  facet normal 0 0 -1
    outer loop
      vertex -0.923879 -14.4327 -17.998
      vertex -0.923879 -13.6673 -17.998
      vertex -0.83147 -13.4944 -17.998
    endloop
  endfacet
  facet normal 0 0 -1
    outer loop
      vertex -0.980784 -14.2451 -17.998
      vertex -0.923879 -13.6673 -17.998
      vertex -0.923879 -14.4327 -17.998
    endloop
  endfacet
  facet normal 0 0 -1
    outer loop
      vertex -0.980784 -14.2451 -17.998
      vertex -0.980784 -13.8549 -17.998
      vertex -0.923879 -13.6673 -17.998
    endloop
  endfacet
  facet normal 0 -0 -1
    outer loop
      vertex -0.980784 -13.8549 -17.998
      vertex -0.980784 -14.2451 -17.998
      vertex -1 -14.05 -17.998
    endloop
  endfacet
  facet normal 0.995185 0.0980188 0
    outer loop
      vertex -0.980784 -14.2451 -17.998
      vertex -1 -14.05 -17.999
      vertex -1 -14.05 -17.998
    endloop
  endfacet
  facet normal 0.995185 0.0980188 0
    outer loop
      vertex -1 -14.05 -17.999
      vertex -0.980784 -14.2451 -17.998
      vertex -0.980784 -14.2451 -17.999
    endloop
  endfacet
  facet normal 0.956944 0.290271 0
    outer loop
      vertex -0.923879 -14.4327 -17.998
      vertex -0.980784 -14.2451 -17.999
      vertex -0.980784 -14.2451 -17.998
    endloop
  endfacet
  facet normal 0.956944 0.290271 0
    outer loop
      vertex -0.980784 -14.2451 -17.999
      vertex -0.923879 -14.4327 -17.998
      vertex -0.923879 -14.4327 -17.999
    endloop
  endfacet
  facet normal 0.0979429 -0.995192 0
    outer loop
      vertex -0.19509 -13.0692 -17.999
      vertex 0 -13.05 -17.998
      vertex -0.19509 -13.0692 -17.998
    endloop
  endfacet
  facet normal 0.0979429 -0.995192 0
    outer loop
      vertex 0 -13.05 -17.998
      vertex -0.19509 -13.0692 -17.999
      vertex 0 -13.05 -17.999
    endloop
  endfacet
  facet normal -0.956944 0.290271 0
    outer loop
      vertex 0.923879 -14.4327 -17.999
      vertex 0.980784 -14.2451 -17.998
      vertex 0.980784 -14.2451 -17.999
    endloop
  endfacet
  facet normal -0.956944 0.290271 0
    outer loop
      vertex 0.980784 -14.2451 -17.998
      vertex 0.923879 -14.4327 -17.999
      vertex 0.923879 -14.4327 -17.998
    endloop
  endfacet
  facet normal 0.772935 -0.634485 0
    outer loop
      vertex -0.83147 -13.4944 -17.998
      vertex -0.707107 -13.3429 -17.999
      vertex -0.707107 -13.3429 -17.998
    endloop
  endfacet
  facet normal 0.772935 -0.634485 0
    outer loop
      vertex -0.707107 -13.3429 -17.999
      vertex -0.83147 -13.4944 -17.998
      vertex -0.83147 -13.4944 -17.999
    endloop
  endfacet
  facet normal -0.290258 -0.956948 0
    outer loop
      vertex 0.19509 -13.0692 -17.999
      vertex 0.382683 -13.1261 -17.998
      vertex 0.19509 -13.0692 -17.998
    endloop
  endfacet
  facet normal -0.290258 -0.956948 -0
    outer loop
      vertex 0.382683 -13.1261 -17.998
      vertex 0.19509 -13.0692 -17.999
      vertex 0.382683 -13.1261 -17.999
    endloop
  endfacet
  facet normal 0.956944 -0.290271 0
    outer loop
      vertex -0.980784 -13.8549 -17.998
      vertex -0.923879 -13.6673 -17.999
      vertex -0.923879 -13.6673 -17.998
    endloop
  endfacet
  facet normal 0.956944 -0.290271 0
    outer loop
      vertex -0.923879 -13.6673 -17.999
      vertex -0.980784 -13.8549 -17.998
      vertex -0.980784 -13.8549 -17.999
    endloop
  endfacet
  facet normal -0.956944 -0.290271 0
    outer loop
      vertex 0.980784 14.2451 -17.999
      vertex 0.923879 14.4327 -17.998
      vertex 0.923879 14.4327 -17.999
    endloop
  endfacet
  facet normal -0.956944 -0.290271 0
    outer loop
      vertex 0.923879 14.4327 -17.998
      vertex 0.980784 14.2451 -17.999
      vertex 0.980784 14.2451 -17.998
    endloop
  endfacet
  facet normal -0.995185 -0.0980188 0
    outer loop
      vertex 1 14.05 -17.999
      vertex 0.980784 14.2451 -17.998
      vertex 0.980784 14.2451 -17.999
    endloop
  endfacet
  facet normal -0.995185 -0.0980188 0
    outer loop
      vertex 0.980784 14.2451 -17.998
      vertex 1 14.05 -17.999
      vertex 1 14.05 -17.998
    endloop
  endfacet
  facet normal -0.881938 -0.471365 0
    outer loop
      vertex 0.923879 14.4327 -17.999
      vertex 0.83147 14.6056 -17.998
      vertex 0.83147 14.6056 -17.999
    endloop
  endfacet
  facet normal -0.881938 -0.471365 0
    outer loop
      vertex 0.83147 14.6056 -17.998
      vertex 0.923879 14.4327 -17.999
      vertex 0.923879 14.4327 -17.998
    endloop
  endfacet
  facet normal 0.634505 -0.772918 0
    outer loop
      vertex -0.707107 14.7571 -17.999
      vertex -0.55557 14.8815 -17.998
      vertex -0.707107 14.7571 -17.998
    endloop
  endfacet
  facet normal 0.634505 -0.772918 0
    outer loop
      vertex -0.55557 14.8815 -17.998
      vertex -0.707107 14.7571 -17.999
      vertex -0.55557 14.8815 -17.999
    endloop
  endfacet
  facet normal -0.290258 -0.956948 0
    outer loop
      vertex 0.19509 15.0308 -17.999
      vertex 0.382683 14.9739 -17.998
      vertex 0.19509 15.0308 -17.998
    endloop
  endfacet
  facet normal -0.290258 -0.956948 -0
    outer loop
      vertex 0.382683 14.9739 -17.998
      vertex 0.19509 15.0308 -17.999
      vertex 0.382683 14.9739 -17.999
    endloop
  endfacet
  facet normal -0.772935 -0.634485 0
    outer loop
      vertex 0.83147 14.6056 -17.999
      vertex 0.707107 14.7571 -17.998
      vertex 0.707107 14.7571 -17.999
    endloop
  endfacet
  facet normal -0.772935 -0.634485 0
    outer loop
      vertex 0.707107 14.7571 -17.998
      vertex 0.83147 14.6056 -17.999
      vertex 0.83147 14.6056 -17.998
    endloop
  endfacet
  facet normal 0.772935 -0.634485 0
    outer loop
      vertex -0.83147 14.6056 -17.998
      vertex -0.707107 14.7571 -17.999
      vertex -0.707107 14.7571 -17.998
    endloop
  endfacet
  facet normal 0.772935 -0.634485 0
    outer loop
      vertex -0.707107 14.7571 -17.999
      vertex -0.83147 14.6056 -17.998
      vertex -0.83147 14.6056 -17.999
    endloop
  endfacet
  facet normal 0 0 -1
    outer loop
      vertex 0.980784 13.8549 -17.998
      vertex 0.980784 14.2451 -17.998
      vertex 1 14.05 -17.998
    endloop
  endfacet
  facet normal 0 0 -1
    outer loop
      vertex 0.923879 13.6673 -17.998
      vertex 0.980784 14.2451 -17.998
      vertex 0.980784 13.8549 -17.998
    endloop
  endfacet
  facet normal 0 0 -1
    outer loop
      vertex 0.923879 13.6673 -17.998
      vertex 0.923879 14.4327 -17.998
      vertex 0.980784 14.2451 -17.998
    endloop
  endfacet
  facet normal 0 0 -1
    outer loop
      vertex 0.83147 13.4944 -17.998
      vertex 0.923879 14.4327 -17.998
      vertex 0.923879 13.6673 -17.998
    endloop
  endfacet
  facet normal 0 0 -1
    outer loop
      vertex 0.83147 13.4944 -17.998
      vertex 0.83147 14.6056 -17.998
      vertex 0.923879 14.4327 -17.998
    endloop
  endfacet
  facet normal 0 0 -1
    outer loop
      vertex 0.707107 13.3429 -17.998
      vertex 0.83147 14.6056 -17.998
      vertex 0.83147 13.4944 -17.998
    endloop
  endfacet
  facet normal 0 0 -1
    outer loop
      vertex 0.707107 13.3429 -17.998
      vertex 0.707107 14.7571 -17.998
      vertex 0.83147 14.6056 -17.998
    endloop
  endfacet
  facet normal 0 0 -1
    outer loop
      vertex 0.55557 13.2185 -17.998
      vertex 0.707107 14.7571 -17.998
      vertex 0.707107 13.3429 -17.998
    endloop
  endfacet
  facet normal 0 0 -1
    outer loop
      vertex 0.55557 13.2185 -17.998
      vertex 0.55557 14.8815 -17.998
      vertex 0.707107 14.7571 -17.998
    endloop
  endfacet
  facet normal 0 0 -1
    outer loop
      vertex 0.382683 13.1261 -17.998
      vertex 0.55557 14.8815 -17.998
      vertex 0.55557 13.2185 -17.998
    endloop
  endfacet
  facet normal 0 0 -1
    outer loop
      vertex 0.382683 13.1261 -17.998
      vertex 0.382683 14.9739 -17.998
      vertex 0.55557 14.8815 -17.998
    endloop
  endfacet
  facet normal 0 0 -1
    outer loop
      vertex 0.19509 13.0692 -17.998
      vertex 0.382683 14.9739 -17.998
      vertex 0.382683 13.1261 -17.998
    endloop
  endfacet
  facet normal 0 0 -1
    outer loop
      vertex 0.19509 13.0692 -17.998
      vertex 0.19509 15.0308 -17.998
      vertex 0.382683 14.9739 -17.998
    endloop
  endfacet
  facet normal 0 0 -1
    outer loop
      vertex 0 13.05 -17.998
      vertex 0.19509 15.0308 -17.998
      vertex 0.19509 13.0692 -17.998
    endloop
  endfacet
  facet normal 0 0 -1
    outer loop
      vertex 0 13.05 -17.998
      vertex 0 15.05 -17.998
      vertex 0.19509 15.0308 -17.998
    endloop
  endfacet
  facet normal 0 0 -1
    outer loop
      vertex -0.19509 13.0692 -17.998
      vertex 0 15.05 -17.998
      vertex 0 13.05 -17.998
    endloop
  endfacet
  facet normal 0 0 -1
    outer loop
      vertex -0.19509 13.0692 -17.998
      vertex -0.19509 15.0308 -17.998
      vertex 0 15.05 -17.998
    endloop
  endfacet
  facet normal 0 0 -1
    outer loop
      vertex -0.382683 13.1261 -17.998
      vertex -0.19509 15.0308 -17.998
      vertex -0.19509 13.0692 -17.998
    endloop
  endfacet
  facet normal 0 0 -1
    outer loop
      vertex -0.382683 13.1261 -17.998
      vertex -0.382683 14.9739 -17.998
      vertex -0.19509 15.0308 -17.998
    endloop
  endfacet
  facet normal 0 0 -1
    outer loop
      vertex -0.55557 13.2185 -17.998
      vertex -0.382683 14.9739 -17.998
      vertex -0.382683 13.1261 -17.998
    endloop
  endfacet
  facet normal 0 0 -1
    outer loop
      vertex -0.55557 13.2185 -17.998
      vertex -0.55557 14.8815 -17.998
      vertex -0.382683 14.9739 -17.998
    endloop
  endfacet
  facet normal 0 0 -1
    outer loop
      vertex -0.707107 13.3429 -17.998
      vertex -0.55557 14.8815 -17.998
      vertex -0.55557 13.2185 -17.998
    endloop
  endfacet
  facet normal 0 0 -1
    outer loop
      vertex -0.707107 13.3429 -17.998
      vertex -0.707107 14.7571 -17.998
      vertex -0.55557 14.8815 -17.998
    endloop
  endfacet
  facet normal 0 0 -1
    outer loop
      vertex -0.83147 13.4944 -17.998
      vertex -0.707107 14.7571 -17.998
      vertex -0.707107 13.3429 -17.998
    endloop
  endfacet
  facet normal 0 0 -1
    outer loop
      vertex -0.83147 13.4944 -17.998
      vertex -0.83147 14.6056 -17.998
      vertex -0.707107 14.7571 -17.998
    endloop
  endfacet
  facet normal 0 0 -1
    outer loop
      vertex -0.923879 13.6673 -17.998
      vertex -0.83147 14.6056 -17.998
      vertex -0.83147 13.4944 -17.998
    endloop
  endfacet
  facet normal 0 0 -1
    outer loop
      vertex -0.923879 13.6673 -17.998
      vertex -0.923879 14.4327 -17.998
      vertex -0.83147 14.6056 -17.998
    endloop
  endfacet
  facet normal 0 0 -1
    outer loop
      vertex -0.980784 13.8549 -17.998
      vertex -0.923879 14.4327 -17.998
      vertex -0.923879 13.6673 -17.998
    endloop
  endfacet
  facet normal 0 0 -1
    outer loop
      vertex -0.980784 13.8549 -17.998
      vertex -0.980784 14.2451 -17.998
      vertex -0.923879 14.4327 -17.998
    endloop
  endfacet
  facet normal 0 -0 -1
    outer loop
      vertex -0.980784 14.2451 -17.998
      vertex -0.980784 13.8549 -17.998
      vertex -1 14.05 -17.998
    endloop
  endfacet
  facet normal 0.881938 0.471365 0
    outer loop
      vertex -0.83147 13.4944 -17.998
      vertex -0.923879 13.6673 -17.999
      vertex -0.923879 13.6673 -17.998
    endloop
  endfacet
  facet normal 0.881938 0.471365 0
    outer loop
      vertex -0.923879 13.6673 -17.999
      vertex -0.83147 13.4944 -17.998
      vertex -0.83147 13.4944 -17.999
    endloop
  endfacet
  facet normal -0.881938 0.471365 0
    outer loop
      vertex 0.83147 13.4944 -17.999
      vertex 0.923879 13.6673 -17.998
      vertex 0.923879 13.6673 -17.999
    endloop
  endfacet
  facet normal -0.881938 0.471365 0
    outer loop
      vertex 0.923879 13.6673 -17.998
      vertex 0.83147 13.4944 -17.999
      vertex 0.83147 13.4944 -17.998
    endloop
  endfacet
  facet normal 0.290258 -0.956948 0
    outer loop
      vertex -0.382683 14.9739 -17.999
      vertex -0.19509 15.0308 -17.998
      vertex -0.382683 14.9739 -17.998
    endloop
  endfacet
  facet normal 0.290258 -0.956948 0
    outer loop
      vertex -0.19509 15.0308 -17.998
      vertex -0.382683 14.9739 -17.999
      vertex -0.19509 15.0308 -17.999
    endloop
  endfacet
  facet normal -0.290258 0.956948 0
    outer loop
      vertex 0.382683 13.1261 -17.999
      vertex 0.19509 13.0692 -17.998
      vertex 0.382683 13.1261 -17.998
    endloop
  endfacet
  facet normal -0.290258 0.956948 0
    outer loop
      vertex 0.19509 13.0692 -17.998
      vertex 0.382683 13.1261 -17.999
      vertex 0.19509 13.0692 -17.999
    endloop
  endfacet
  facet normal -0.634505 -0.772918 0
    outer loop
      vertex 0.55557 14.8815 -17.999
      vertex 0.707107 14.7571 -17.998
      vertex 0.55557 14.8815 -17.998
    endloop
  endfacet
  facet normal -0.634505 -0.772918 -0
    outer loop
      vertex 0.707107 14.7571 -17.998
      vertex 0.55557 14.8815 -17.999
      vertex 0.707107 14.7571 -17.999
    endloop
  endfacet
  facet normal 0.0979429 -0.995192 0
    outer loop
      vertex -0.19509 15.0308 -17.999
      vertex 0 15.05 -17.998
      vertex -0.19509 15.0308 -17.998
    endloop
  endfacet
  facet normal 0.0979429 -0.995192 0
    outer loop
      vertex 0 15.05 -17.998
      vertex -0.19509 15.0308 -17.999
      vertex 0 15.05 -17.999
    endloop
  endfacet
  facet normal -0.634505 0.772918 0
    outer loop
      vertex 0.707107 13.3429 -17.999
      vertex 0.55557 13.2185 -17.998
      vertex 0.707107 13.3429 -17.998
    endloop
  endfacet
  facet normal -0.634505 0.772918 0
    outer loop
      vertex 0.55557 13.2185 -17.998
      vertex 0.707107 13.3429 -17.999
      vertex 0.55557 13.2185 -17.999
    endloop
  endfacet
  facet normal -0.471357 0.881943 0
    outer loop
      vertex 0.55557 13.2185 -17.999
      vertex 0.382683 13.1261 -17.998
      vertex 0.55557 13.2185 -17.998
    endloop
  endfacet
  facet normal -0.471357 0.881943 0
    outer loop
      vertex 0.382683 13.1261 -17.998
      vertex 0.55557 13.2185 -17.999
      vertex 0.382683 13.1261 -17.999
    endloop
  endfacet
  facet normal 0.634505 0.772918 -0
    outer loop
      vertex -0.55557 13.2185 -17.999
      vertex -0.707107 13.3429 -17.998
      vertex -0.55557 13.2185 -17.998
    endloop
  endfacet
  facet normal 0.634505 0.772918 0
    outer loop
      vertex -0.707107 13.3429 -17.998
      vertex -0.55557 13.2185 -17.999
      vertex -0.707107 13.3429 -17.999
    endloop
  endfacet
  facet normal -0.772935 0.634485 0
    outer loop
      vertex 0.707107 13.3429 -17.999
      vertex 0.83147 13.4944 -17.998
      vertex 0.83147 13.4944 -17.999
    endloop
  endfacet
  facet normal -0.772935 0.634485 0
    outer loop
      vertex 0.83147 13.4944 -17.998
      vertex 0.707107 13.3429 -17.999
      vertex 0.707107 13.3429 -17.998
    endloop
  endfacet
  facet normal -0.995185 0.0980188 0
    outer loop
      vertex 0.980784 13.8549 -17.999
      vertex 1 14.05 -17.998
      vertex 1 14.05 -17.999
    endloop
  endfacet
  facet normal -0.995185 0.0980188 0
    outer loop
      vertex 1 14.05 -17.998
      vertex 0.980784 13.8549 -17.999
      vertex 0.980784 13.8549 -17.998
    endloop
  endfacet
  facet normal -0.956944 0.290271 0
    outer loop
      vertex 0.923879 13.6673 -17.999
      vertex 0.980784 13.8549 -17.998
      vertex 0.980784 13.8549 -17.999
    endloop
  endfacet
  facet normal -0.956944 0.290271 0
    outer loop
      vertex 0.980784 13.8549 -17.998
      vertex 0.923879 13.6673 -17.999
      vertex 0.923879 13.6673 -17.998
    endloop
  endfacet
  facet normal 0.471357 -0.881943 0
    outer loop
      vertex -0.55557 14.8815 -17.999
      vertex -0.382683 14.9739 -17.998
      vertex -0.55557 14.8815 -17.998
    endloop
  endfacet
  facet normal 0.471357 -0.881943 0
    outer loop
      vertex -0.382683 14.9739 -17.998
      vertex -0.55557 14.8815 -17.999
      vertex -0.382683 14.9739 -17.999
    endloop
  endfacet
  facet normal -0.471357 -0.881943 0
    outer loop
      vertex 0.382683 14.9739 -17.999
      vertex 0.55557 14.8815 -17.998
      vertex 0.382683 14.9739 -17.998
    endloop
  endfacet
  facet normal -0.471357 -0.881943 -0
    outer loop
      vertex 0.55557 14.8815 -17.998
      vertex 0.382683 14.9739 -17.999
      vertex 0.55557 14.8815 -17.999
    endloop
  endfacet
  facet normal 0.956944 -0.290271 0
    outer loop
      vertex -0.980784 14.2451 -17.998
      vertex -0.923879 14.4327 -17.999
      vertex -0.923879 14.4327 -17.998
    endloop
  endfacet
  facet normal 0.956944 -0.290271 0
    outer loop
      vertex -0.923879 14.4327 -17.999
      vertex -0.980784 14.2451 -17.998
      vertex -0.980784 14.2451 -17.999
    endloop
  endfacet
  facet normal -0.0979429 0.995192 0
    outer loop
      vertex 0.19509 13.0692 -17.999
      vertex 0 13.05 -17.998
      vertex 0.19509 13.0692 -17.998
    endloop
  endfacet
  facet normal -0.0979429 0.995192 0
    outer loop
      vertex 0 13.05 -17.998
      vertex 0.19509 13.0692 -17.999
      vertex 0 13.05 -17.999
    endloop
  endfacet
  facet normal 0.881938 -0.471365 0
    outer loop
      vertex -0.923879 14.4327 -17.998
      vertex -0.83147 14.6056 -17.999
      vertex -0.83147 14.6056 -17.998
    endloop
  endfacet
  facet normal 0.881938 -0.471365 0
    outer loop
      vertex -0.83147 14.6056 -17.999
      vertex -0.923879 14.4327 -17.998
      vertex -0.923879 14.4327 -17.999
    endloop
  endfacet
  facet normal 0.956944 0.290271 0
    outer loop
      vertex -0.923879 13.6673 -17.998
      vertex -0.980784 13.8549 -17.999
      vertex -0.980784 13.8549 -17.998
    endloop
  endfacet
  facet normal 0.956944 0.290271 0
    outer loop
      vertex -0.980784 13.8549 -17.999
      vertex -0.923879 13.6673 -17.998
      vertex -0.923879 13.6673 -17.999
    endloop
  endfacet
  facet normal 0.995185 0.0980188 0
    outer loop
      vertex -0.980784 13.8549 -17.998
      vertex -1 14.05 -17.999
      vertex -1 14.05 -17.998
    endloop
  endfacet
  facet normal 0.995185 0.0980188 0
    outer loop
      vertex -1 14.05 -17.999
      vertex -0.980784 13.8549 -17.998
      vertex -0.980784 13.8549 -17.999
    endloop
  endfacet
  facet normal 0.772935 0.634485 0
    outer loop
      vertex -0.707107 13.3429 -17.998
      vertex -0.83147 13.4944 -17.999
      vertex -0.83147 13.4944 -17.998
    endloop
  endfacet
  facet normal 0.772935 0.634485 0
    outer loop
      vertex -0.83147 13.4944 -17.999
      vertex -0.707107 13.3429 -17.998
      vertex -0.707107 13.3429 -17.999
    endloop
  endfacet
  facet normal 0.471357 0.881943 -0
    outer loop
      vertex -0.382683 13.1261 -17.999
      vertex -0.55557 13.2185 -17.998
      vertex -0.382683 13.1261 -17.998
    endloop
  endfacet
  facet normal 0.471357 0.881943 0
    outer loop
      vertex -0.55557 13.2185 -17.998
      vertex -0.382683 13.1261 -17.999
      vertex -0.55557 13.2185 -17.999
    endloop
  endfacet
  facet normal -0.0979429 -0.995192 0
    outer loop
      vertex 0 15.05 -17.999
      vertex 0.19509 15.0308 -17.998
      vertex 0 15.05 -17.998
    endloop
  endfacet
  facet normal -0.0979429 -0.995192 -0
    outer loop
      vertex 0.19509 15.0308 -17.998
      vertex 0 15.05 -17.999
      vertex 0.19509 15.0308 -17.999
    endloop
  endfacet
  facet normal 0.995185 -0.0980188 0
    outer loop
      vertex -1 14.05 -17.998
      vertex -0.980784 14.2451 -17.999
      vertex -0.980784 14.2451 -17.998
    endloop
  endfacet
  facet normal 0.995185 -0.0980188 0
    outer loop
      vertex -0.980784 14.2451 -17.999
      vertex -1 14.05 -17.998
      vertex -1 14.05 -17.999
    endloop
  endfacet
  facet normal 0.0979429 0.995192 -0
    outer loop
      vertex 0 13.05 -17.999
      vertex -0.19509 13.0692 -17.998
      vertex 0 13.05 -17.998
    endloop
  endfacet
  facet normal 0.0979429 0.995192 0
    outer loop
      vertex -0.19509 13.0692 -17.998
      vertex 0 13.05 -17.999
      vertex -0.19509 13.0692 -17.999
    endloop
  endfacet
  facet normal 0.290258 0.956948 -0
    outer loop
      vertex -0.19509 13.0692 -17.999
      vertex -0.382683 13.1261 -17.998
      vertex -0.19509 13.0692 -17.998
    endloop
  endfacet
  facet normal 0.290258 0.956948 0
    outer loop
      vertex -0.382683 13.1261 -17.998
      vertex -0.19509 13.0692 -17.999
      vertex -0.382683 13.1261 -17.999
    endloop
  endfacet
  facet normal -1 0 0
    outer loop
      vertex 6.1 -11.35 -18
      vertex 6.1 11.35 0
      vertex 6.1 11.35 -18
    endloop
  endfacet
  facet normal -1 -0 0
    outer loop
      vertex 6.1 11.35 0
      vertex 6.1 -11.35 -18
      vertex 6.1 -11.35 0
    endloop
  endfacet
  facet normal 1 -0 0
    outer loop
      vertex -6.1 -11.35 0
      vertex -6.1 11.35 -18
      vertex -6.1 11.35 0
    endloop
  endfacet
  facet normal 1 0 0
    outer loop
      vertex -6.1 11.35 -18
      vertex -6.1 -11.35 0
      vertex -6.1 -11.35 -18
    endloop
  endfacet
  facet normal 0 -1 0
    outer loop
      vertex -6.1 11.35 -18
      vertex 6.1 11.35 0
      vertex -6.1 11.35 0
    endloop
  endfacet
  facet normal 0 -1 -0
    outer loop
      vertex 6.1 11.35 0
      vertex -6.1 11.35 -18
      vertex 6.1 11.35 -18
    endloop
  endfacet
  facet normal 0 1 -0
    outer loop
      vertex 6.1 -11.35 -18
      vertex -6.1 -11.35 0
      vertex 6.1 -11.35 0
    endloop
  endfacet
  facet normal 0 1 0
    outer loop
      vertex -6.1 -11.35 0
      vertex 6.1 -11.35 -18
      vertex -6.1 -11.35 -18
    endloop
  endfacet
endsolid OpenSCAD_Model
